<svg width="24" height="24" viewBox="0 0 24 24" fill="none" xmlns="http://www.w3.org/2000/svg">
<path fill-rule="evenodd" clip-rule="evenodd" d="M22.5915 0.550626C21.9081 -0.159272 20.8041 -0.159272 20.1207 0.550626L11.552 9.43345L2.98328 0.532423C2.29989 -0.177474 1.19594 -0.177474 0.512546 0.532423C-0.170849 1.24232 -0.170849 2.38908 0.512546 3.09898L9.08127 12L0.512546 20.901C-0.170849 21.6109 -0.170849 22.7577 0.512546 23.4676C1.19594 24.1775 2.29989 24.1775 2.98328 23.4676L11.552 14.5666L20.1207 23.4676C20.8041 24.1775 21.9081 24.1775 22.5915 23.4676C23.2749 22.7577 23.2749 21.6109 22.5915 20.901L14.0227 12L22.5915 3.09898C23.2573 2.40728 23.2573 1.24232 22.5915 0.550626Z" fill="#C6D2F2"/>
</svg>
